<svg width="24" height="24" viewBox="0 0 24 24" fill="none" xmlns="http://www.w3.org/2000/svg">
<path d="M14.7975 0.959962L14.7957 0.969337C14.8 0.982297 14.8092 0.992939 14.8135 1.0059L17.6935 10.1259C17.8557 10.64 17.7198 11.196 17.3382 11.5771L8.1188 20.7975L10.2207 22.8993C10.3143 22.9925 10.4372 23.04 10.56 23.04C10.6829 23.04 10.8058 22.9929 10.8994 22.8993L22.8994 10.8993C23.0871 10.7117 23.0871 10.4083 22.8994 10.2206L14.7975 0.959962ZM20.1591 0.959962C20.0336 0.960209 19.9118 1.00915 19.8207 1.10059L17.8875 3.03371L23.041 8.92402L20.6241 1.31715C20.5804 1.15107 20.4508 1.02102 20.2847 0.975899C20.2433 0.964979 20.2009 0.959879 20.1591 0.959962ZM13.4316 0.960899C13.309 0.963667 13.1905 1.01203 13.1016 1.10059L1.10161 13.1006C0.974888 13.2273 0.928786 13.4139 0.982546 13.5843L3.86255 22.7043C3.91295 22.8647 4.04389 22.987 4.20661 23.0268C4.24405 23.0355 4.28213 23.04 4.32005 23.04C4.44581 23.04 4.56822 22.9901 4.65942 22.8993L16.6594 10.8993C16.7861 10.7726 16.8313 10.586 16.7775 10.4156L13.8975 1.29559C13.8471 1.13527 13.7171 1.01293 13.5544 0.973087C13.5136 0.963607 13.4725 0.959977 13.4316 0.960899Z" fill="white"/>
</svg>
