<svg width="17" height="18" viewBox="0 0 17 18" fill="none" xmlns="http://www.w3.org/2000/svg">
<path d="M0.580215 0.719971C0.381934 0.719971 0.220215 0.88169 0.220215 1.07997V2.15997C0.220215 2.35825 0.381934 2.51997 0.580215 2.51997H16.4202C16.6199 2.51997 16.7802 2.35825 16.7802 2.15997V1.07997C16.7802 0.88169 16.6199 0.719971 16.4202 0.719971H0.580215ZM0.940215 3.23997V14.04C0.940215 14.2397 1.10193 14.4 1.30021 14.4H15.7002C15.8999 14.4 16.0602 14.2397 16.0602 14.04V3.23997H0.940215ZM5.98021 5.75997C6.97443 5.75997 7.78021 6.56575 7.78021 7.55997H5.98021V5.75997ZM9.58021 6.11997H13.5402C13.7399 6.11997 13.9002 6.28169 13.9002 6.47997C13.9002 6.67825 13.7399 6.83997 13.5402 6.83997H9.58021C9.38053 6.83997 9.22021 6.67825 9.22021 6.47997C9.22021 6.28169 9.38053 6.11997 9.58021 6.11997ZM4.90021 6.83997V8.63997H6.70021C6.70021 9.63419 5.89443 10.44 4.90021 10.44C3.906 10.44 3.10021 9.63419 3.10021 8.63997C3.10021 7.64575 3.906 6.83997 4.90021 6.83997ZM9.58021 7.91997H13.5402C13.7399 7.91997 13.9002 8.08169 13.9002 8.27997C13.9002 8.47825 13.7399 8.63997 13.5402 8.63997H9.58021C9.38053 8.63997 9.22021 8.47825 9.22021 8.27997C9.22021 8.08169 9.38053 7.91997 9.58021 7.91997ZM9.58021 9.71997H13.5402C13.7399 9.71997 13.9002 9.88028 13.9002 10.08C13.9002 10.2797 13.7399 10.44 13.5402 10.44H9.58021C9.38053 10.44 9.22021 10.2797 9.22021 10.08C9.22021 9.88028 9.38053 9.71997 9.58021 9.71997ZM8.14021 14.76V15.1875C7.72396 15.3379 7.42021 15.7317 7.42021 16.2C7.42021 16.7948 7.90537 17.28 8.50021 17.28C9.09506 17.28 9.58021 16.7948 9.58021 16.2C9.58021 15.7317 9.27646 15.3379 8.86021 15.1875V14.76H8.14021Z" fill="white"/>
</svg>
