<svg width="24" height="24" viewBox="0 0 24 24" fill="none" xmlns="http://www.w3.org/2000/svg">
<g clip-path="url(#clip0_88_1969)">
<path d="M2.8799 2.3999C2.7839 2.3999 2.6879 2.44753 2.6399 2.49553L6.91209 7.1999H21.2643L16.1277 2.54428C16.0317 2.44828 15.9361 2.3999 15.7921 2.3999H2.8799ZM2.3999 3.64771V15.7921C2.3999 15.8881 2.44753 16.0319 2.49553 16.0799L6.2399 20.6877V7.87209L2.3999 3.64771ZM7.1999 8.1599V21.5999H17.2799V12.0955L18.9121 13.7277L21.5999 16.4155V8.1599H7.1999ZM18.2399 14.3999V22.5599L20.1121 20.6877L21.5043 23.9999L22.8477 23.4243L21.4555 20.1599H23.9999L18.2399 14.3999Z" fill="white"/>
</g>
<defs>
<clipPath id="clip0_88_1969">
<rect width="24" height="24" fill="white"/>
</clipPath>
</defs>
</svg>
