<svg width="23" height="24" viewBox="0 0 23 24" fill="none" xmlns="http://www.w3.org/2000/svg">
<path d="M11.0385 0.959961C4.94699 0.959961 -0.00146484 5.90842 -0.00146484 12C-0.00146484 18.0915 4.94699 23.04 11.0385 23.04C17.1301 23.04 22.0785 18.0915 22.0785 12C22.0785 5.90842 17.1301 0.959961 11.0385 0.959961ZM11.0385 1.91996C16.6113 1.91996 21.1185 6.42724 21.1185 12C21.1185 17.5727 16.6113 22.08 11.0385 22.08C5.46582 22.08 0.958535 17.5727 0.958535 12C0.958535 6.42724 5.46582 1.91996 11.0385 1.91996ZM10.5585 2.94371C9.31437 3.24995 8.2134 4.7237 7.5126 6.81746C8.47884 7.01522 9.50493 7.13135 10.5585 7.15871V2.94371ZM11.5185 2.94371V7.15871C12.5827 7.13183 13.6092 7.01888 14.5673 6.82496C13.8665 4.72736 12.7637 3.24995 11.5185 2.94371ZM8.35916 3.28309C6.82028 3.75685 5.46073 4.63291 4.38697 5.78059C5.04025 6.10555 5.77375 6.37694 6.56479 6.59246C7.01263 5.2259 7.62668 4.09237 8.35916 3.28309ZM13.7179 3.28309C14.4518 4.09381 15.0673 5.23098 15.5151 6.6009C16.3133 6.38346 17.0465 6.10801 17.6882 5.77777C16.6149 4.63105 15.2553 3.75637 13.7179 3.28309ZM18.3163 6.52777C17.5743 6.93049 16.7193 7.26379 15.7804 7.52059C16.0881 8.72971 16.2723 10.08 16.3063 11.52H20.1342C20.0362 9.6518 19.3762 7.93369 18.3163 6.52777ZM3.75604 6.5334C2.6986 7.93836 2.04083 9.6542 1.94291 11.52H5.77072C5.8048 10.0771 5.98942 8.72413 6.29854 7.51309C5.3683 7.25869 4.51108 6.9294 3.75604 6.5334ZM7.23791 7.73902C6.94271 8.88382 6.76576 10.1692 6.73072 11.52H10.5585V8.11871C9.41229 8.08991 8.29199 7.9603 7.23791 7.73902ZM14.8401 7.74652C13.7947 7.96396 12.6753 8.09087 11.5185 8.11871V11.52H15.3463C15.3113 10.1721 15.1343 8.8894 14.8401 7.74652ZM1.94291 12.48C2.04083 14.3481 2.70088 16.0662 3.76072 17.4721C4.5028 17.0694 5.35778 16.7361 6.29666 16.4793C5.98898 15.2702 5.8048 13.92 5.77072 12.48H1.94291ZM6.73072 12.48C6.76576 13.8278 6.94273 15.1105 7.23697 16.2534C8.28241 16.036 9.40173 15.9091 10.5585 15.8812V12.48H6.73072ZM11.5185 12.48V15.8812C12.6648 15.91 13.7841 16.0396 14.8382 16.2609C15.1334 15.1161 15.3113 13.8307 15.3463 12.48H11.5185ZM16.3063 12.48C16.2723 13.9228 16.0877 15.2758 15.7785 16.4868C16.7088 16.7412 17.566 17.0705 18.321 17.4665C19.3785 16.0616 20.0362 14.3457 20.1342 12.48H16.3063ZM10.5585 16.8412C9.49437 16.8681 8.46786 16.981 7.50978 17.175C8.21058 19.2726 9.31341 20.75 10.5585 21.0562V16.8412ZM11.5185 16.8412V21.0562C12.7627 20.75 13.8637 19.2762 14.5645 17.1825C13.5982 16.9847 12.5721 16.8686 11.5185 16.8412ZM6.56197 17.399C5.76373 17.6165 5.03061 17.8919 4.38885 18.2221C5.46213 19.3689 6.82172 20.2436 8.35916 20.7168C7.62524 19.9061 7.00981 18.7689 6.56197 17.399ZM15.5123 17.4075C15.0644 18.774 14.4495 19.9076 13.717 20.7168C15.2559 20.2431 16.6163 19.367 17.6901 18.2193C17.0368 17.8944 16.3033 17.623 15.5123 17.4075Z" fill="white"/>
</svg>
