<svg width="18" height="18" viewBox="0 0 18 18" fill="none" xmlns="http://www.w3.org/2000/svg">
<path d="M9.00021 0.719971C4.43412 0.719971 0.720215 4.43388 0.720215 8.99997C0.720215 13.5661 4.43412 17.28 9.00021 17.28C13.5663 17.28 17.2802 13.5661 17.2802 8.99997C17.2802 4.43388 13.5663 0.719971 9.00021 0.719971ZM6.48021 6.59247C8.10021 6.59247 8.39271 7.91575 8.39271 8.16747H7.62771C7.59115 8.02403 7.45193 7.26747 6.48021 7.26747C5.18365 7.26747 5.10771 8.81716 5.10771 9.03372C5.10771 10.2937 5.79678 10.8 6.48021 10.8C7.38021 10.8 7.74021 10.2234 7.74021 9.53997H6.54771V8.93247H8.46021V11.3062H7.95396L7.85271 10.7662C7.63615 11.0179 7.23678 11.4075 6.48021 11.4075C4.89678 11.4075 4.32021 10.0083 4.32021 8.99997C4.32021 8.27997 4.68021 6.59247 6.48021 6.59247ZM11.5202 6.59247C12.8168 6.59247 13.6802 7.63169 13.6802 8.99997C13.6802 10.2234 12.9602 11.4075 11.5202 11.4075C9.75678 11.4075 9.36021 9.79169 9.36021 8.99997C9.36021 7.27169 10.5485 6.59247 11.5202 6.59247ZM11.5202 7.23372C10.2237 7.23372 10.1477 8.78341 10.1477 8.99997C10.1477 9.53997 10.3319 10.7662 11.5202 10.7662C12.2402 10.7662 12.8927 10.1883 12.8927 8.99997C12.8927 8.78341 12.8519 7.23372 11.5202 7.23372Z" fill="white"/>
</svg>
