<svg width="17" height="17" viewBox="0 0 17 17" fill="none" xmlns="http://www.w3.org/2000/svg">
<path d="M7.06008 0.439941C3.48969 0.439941 0.580078 3.34955 0.580078 6.91994C0.580078 10.4903 3.48969 13.3999 7.06008 13.3999C8.36392 13.3999 9.57731 13.009 10.5954 12.3424L15.1165 16.8635L16.6437 15.3363L12.1809 10.8736C13.0294 9.77776 13.5401 8.40844 13.5401 6.91994C13.5401 3.34955 10.6305 0.439941 7.06008 0.439941ZM7.06008 1.87994C9.85233 1.87994 12.1001 4.12769 12.1001 6.91994C12.1001 9.71219 9.85233 11.9599 7.06008 11.9599C4.26783 11.9599 2.02008 9.71219 2.02008 6.91994C2.02008 4.12769 4.26783 1.87994 7.06008 1.87994Z" fill="white"/>
</svg>
