<svg width="24" height="24" viewBox="0 0 24 24" fill="none" xmlns="http://www.w3.org/2000/svg">
<path d="M13.83 0.0150588L0.39 2.56506C0.163125 2.60818 0 2.81443 0 3.04506V20.9551C0 21.1857 0.163125 21.3919 0.39 21.4351L13.83 23.9851C13.86 23.9907 13.89 24.0001 13.92 24.0001C14.0306 24.0001 14.1338 23.9663 14.22 23.8951C14.3306 23.8032 14.4 23.6626 14.4 23.5201V0.480059C14.4 0.337559 14.3306 0.196934 14.22 0.105059C14.1094 0.0131838 13.9706 -0.0111912 13.83 0.0150588ZM15.36 2.88006V7.23006C15.5175 7.20756 15.6769 7.20006 15.84 7.20006V10.5601H19.2C19.2 12.4163 17.6963 13.9201 15.84 13.9201C15.6769 13.9201 15.5175 13.9126 15.36 13.8901V16.8001H19.2V17.7601H15.36V21.1201H22.56C23.0888 21.1201 23.52 20.6888 23.52 20.1601V3.84006C23.52 3.31131 23.0888 2.88006 22.56 2.88006H15.36ZM17.28 5.76006C19.1363 5.76006 20.64 7.26381 20.64 9.12006H17.28V5.76006ZM3.915 7.51506H7.08C9.34313 7.51506 10.485 8.47131 10.485 10.3801C10.485 11.2819 10.1588 12.0132 9.51 12.5701C8.86125 13.1269 7.98563 13.4101 6.9 13.4101H5.94V16.5001H3.915V7.51506ZM5.94 9.07506V11.8651H6.735C7.81125 11.8651 8.355 11.3982 8.355 10.4551C8.355 9.53256 7.81125 9.07506 6.735 9.07506H5.94Z" fill="white"/>
</svg>
