<svg width="22" height="22" viewBox="0 0 22 22" fill="none" xmlns="http://www.w3.org/2000/svg">
<path d="M21.0799 8.59994C21.3462 8.59994 21.5599 8.38432 21.5599 8.11994V6.19994C21.5599 5.93557 21.3462 5.71994 21.0799 5.71994H16.2799V0.919941C16.2799 0.655567 16.0662 0.439941 15.7999 0.439941H13.8799C13.6137 0.439941 13.3999 0.655567 13.3999 0.919941V5.71994H8.59994V0.919941C8.59994 0.655567 8.38432 0.439941 8.11994 0.439941H6.19994C5.93557 0.439941 5.71994 0.655567 5.71994 0.919941V5.71994H0.919941C0.655567 5.71994 0.439941 5.93557 0.439941 6.19994V8.11994C0.439941 8.38432 0.655567 8.59994 0.919941 8.59994H5.71994V13.3999H0.919941C0.655567 13.3999 0.439941 13.6137 0.439941 13.8799V15.7999C0.439941 16.0662 0.655567 16.2799 0.919941 16.2799H5.71994V21.0799C5.71994 21.3462 5.93557 21.5599 6.19994 21.5599H8.11994C8.38432 21.5599 8.59994 21.3462 8.59994 21.0799V16.2799H13.3999V21.0799C13.3999 21.3462 13.6137 21.5599 13.8799 21.5599H15.7999C16.0662 21.5599 16.2799 21.3462 16.2799 21.0799V16.2799H21.0799C21.3462 16.2799 21.5599 16.0662 21.5599 15.7999V13.8799C21.5599 13.6137 21.3462 13.3999 21.0799 13.3999H16.2799V8.59994H21.0799ZM13.3999 13.3999H8.59994V8.59994H13.3999V13.3999Z" fill="white"/>
</svg>
