<svg width="17" height="18" viewBox="0 0 17 18" fill="none" xmlns="http://www.w3.org/2000/svg">
<path d="M8.50021 0.719971C3.93469 0.719971 0.220215 4.43409 0.220215 8.99997C0.220215 13.5659 3.93469 17.28 8.50021 17.28C13.0657 17.28 16.7802 13.5659 16.7802 8.99997C16.7802 4.43409 13.0657 0.719971 8.50021 0.719971ZM11.0609 3.81201L11.4479 3.16725C11.5501 2.99661 11.7708 2.94153 11.9418 3.04377C12.1125 3.14601 12.1675 3.36705 12.0653 3.53769L11.6783 4.18245C11.6106 4.29513 11.4915 4.35705 11.3694 4.35705C11.3064 4.35705 11.2423 4.34049 11.1844 4.30557C11.0137 4.20369 10.9587 3.98265 11.0609 3.81201ZM8.14021 2.48217C8.14021 2.28309 8.30149 2.12217 8.50021 2.12217C8.69893 2.12217 8.86021 2.28309 8.86021 2.48217V3.22377C8.86021 3.42285 8.69893 3.58377 8.50021 3.58377C8.30149 3.58377 8.14021 3.42285 8.14021 3.22377V2.48217ZM2.58217 5.52057C2.68441 5.34957 2.90545 5.29449 3.07609 5.39709L3.72085 5.78373C3.89149 5.88597 3.94657 6.10701 3.84433 6.27765C3.77665 6.39033 3.65749 6.45225 3.53545 6.45225C3.47245 6.45225 3.40837 6.43569 3.35077 6.40077L2.70601 6.01413C2.53501 5.91225 2.47957 5.69121 2.58217 5.52057ZM1.66021 8.96217C1.66021 8.76309 1.82149 8.60217 2.02021 8.60217H2.76181C2.96053 8.60217 3.12181 8.76309 3.12181 8.96217C3.12181 9.16125 2.96053 9.32217 2.76181 9.32217H2.02021C1.82149 9.32217 1.66021 9.16089 1.66021 8.96217ZM3.72085 12.1399L3.07609 12.5269C3.01813 12.5618 2.95441 12.5784 2.89105 12.5784C2.76865 12.5784 2.64949 12.5161 2.58217 12.4038C2.47993 12.2331 2.53501 12.0121 2.70565 11.9099L3.35041 11.5229C3.52069 11.4206 3.74209 11.4757 3.84433 11.6463C3.94657 11.8163 3.89113 12.0377 3.72085 12.1399ZM5.81605 4.30593C5.75809 4.34085 5.69437 4.35741 5.63101 4.35741C5.50861 4.35741 5.38945 4.29513 5.32213 4.18281L4.93513 3.53805C4.83289 3.36741 4.88797 3.14637 5.05861 3.04413C5.22925 2.94225 5.45029 2.99697 5.55253 3.16761L5.93953 3.81237C6.04177 3.98265 5.98669 4.20369 5.81605 4.30593ZM9.16621 9.85425C8.98441 9.99465 8.75653 10.08 8.50021 10.08C7.88821 10.08 7.42021 9.61197 7.42021 8.99997C7.42021 8.51361 7.71793 8.12265 8.14597 7.98081L8.14453 7.97829L14.3751 5.57709L9.16837 9.85821L9.16621 9.85425ZM14.4183 12.4034C14.3506 12.5161 14.2314 12.578 14.1094 12.578C14.0464 12.578 13.9823 12.5615 13.9243 12.5265L13.2796 12.1395C13.1089 12.0373 13.0539 11.8162 13.1561 11.6456C13.2583 11.475 13.4794 11.4195 13.65 11.5221L14.2948 11.9091C14.4654 12.0117 14.5209 12.2328 14.4183 12.4034ZM14.9802 9.32217H14.2386C14.0399 9.32217 13.8786 9.16125 13.8786 8.96217C13.8786 8.76309 14.0399 8.60217 14.2386 8.60217H14.9802C15.1789 8.60217 15.3402 8.76309 15.3402 8.96217C15.3402 9.16125 15.1789 9.32217 14.9802 9.32217Z" fill="white"/>
</svg>
