<svg width="22" height="22" viewBox="0 0 22 22" fill="none" xmlns="http://www.w3.org/2000/svg">
<path d="M16.2799 0.919922H5.71992C3.07512 0.919922 0.919922 3.07512 0.919922 5.71992V16.2799C0.919922 18.9247 3.07512 21.0799 5.71992 21.0799H16.2799C18.9247 21.0799 21.0799 18.9247 21.0799 16.2799V5.71992C21.0799 3.07512 18.9247 0.919922 16.2799 0.919922ZM18.6799 15.3199C18.6799 16.3802 17.8202 17.2399 16.7599 17.2399H5.23992C4.1796 17.2399 3.31992 16.3802 3.31992 15.3199V10.0399C3.31992 9.77496 3.53496 9.55992 3.79992 9.55992H18.1999C18.4649 9.55992 18.6799 9.77496 18.6799 10.0399V15.3199ZM18.6799 8.59992H17.7199C17.7199 8.59992 17.7194 8.49048 17.6671 8.38392C17.3935 7.83672 16.7503 7.63992 16.2799 7.63992H5.71992C5.24952 7.63992 4.60632 7.83672 4.33272 8.38392C4.28232 8.48472 4.27992 8.59992 4.27992 8.59992H3.31992V6.67992C3.31992 5.61912 4.17912 4.75992 5.23992 4.75992H7.15992C7.83672 4.75992 8.19672 5.11992 8.46072 5.37912C8.69592 5.61432 8.81112 5.71992 9.07992 5.71992H16.7599C17.8207 5.71992 18.6799 6.57912 18.6799 7.63992V8.59992Z" fill="white"/>
</svg>
