<svg width="24" height="22" viewBox="0 0 24 22" fill="none" xmlns="http://www.w3.org/2000/svg">
<path d="M0.95998 0.919922C0.69502 0.919922 0.47998 1.13496 0.47998 1.39992V20.5999C0.47998 20.8649 0.69502 21.0799 0.95998 21.0799H23.04C23.3049 21.0799 23.52 20.8649 23.52 20.5999V1.39992C23.52 1.13496 23.3049 0.919922 23.04 0.919922H0.95998ZM1.43998 1.87992H2.87998V3.31992H1.43998V1.87992ZM3.83998 1.87992H5.75998V3.31992H3.83998V1.87992ZM6.71998 1.87992H8.63998V3.31992H6.71998V1.87992ZM9.59998 1.87992H11.52V3.31992H9.59998V1.87992ZM12.48 1.87992H14.4V3.31992H12.48V1.87992ZM15.36 1.87992H17.28V3.31992H15.36V1.87992ZM18.24 1.87992H20.16V3.31992H18.24V1.87992ZM21.12 1.87992H22.56V3.31992H21.12V1.87992ZM10.08 8.11992L14.88 10.9999L10.08 13.8799V8.11992ZM1.43998 18.6799H2.87998V20.1199H1.43998V18.6799ZM3.83998 18.6799H5.75998V20.1199H3.83998V18.6799ZM6.71998 18.6799H8.63998V20.1199H6.71998V18.6799ZM9.59998 18.6799H11.52V20.1199H9.59998V18.6799ZM12.48 18.6799H14.4V20.1199H12.48V18.6799ZM15.36 18.6799H17.28V20.1199H15.36V18.6799ZM18.24 18.6799H20.16V20.1199H18.24V18.6799ZM21.12 18.6799H22.56V20.1199H21.12V18.6799Z" fill="white"/>
</svg>
