<svg width="24" height="24" viewBox="0 0 24 24" fill="none" xmlns="http://www.w3.org/2000/svg">
<path d="M12 0.959961C5.91184 0.959961 0.959961 5.91184 0.959961 12C0.959961 18.0881 5.91184 23.04 12 23.04C18.0881 23.04 23.04 18.0881 23.04 12C23.04 5.91184 18.0881 0.959961 12 0.959961ZM8.63996 8.78996C10.8 8.78996 11.19 10.5543 11.19 10.89H10.17C10.1212 10.6987 9.93559 9.68996 8.63996 9.68996C6.91121 9.68996 6.80996 11.7562 6.80996 12.045C6.80996 13.725 7.72871 14.4 8.63996 14.4C9.83996 14.4 10.32 13.6312 10.32 12.72H8.72996V11.91H11.28V15.075H10.605L10.47 14.355C10.1812 14.6906 9.64871 15.21 8.63996 15.21C6.52871 15.21 5.75996 13.3443 5.75996 12C5.75996 11.04 6.23996 8.78996 8.63996 8.78996ZM15.36 8.78996C17.0887 8.78996 18.24 10.1756 18.24 12C18.24 13.6312 17.28 15.21 15.36 15.21C13.0087 15.21 12.48 13.0556 12.48 12C12.48 9.69559 14.0643 8.78996 15.36 8.78996ZM15.36 9.64496C13.6312 9.64496 13.53 11.7112 13.53 12C13.53 12.72 13.7756 14.355 15.36 14.355C16.32 14.355 17.19 13.5843 17.19 12C17.19 11.7112 17.1356 9.64496 15.36 9.64496Z" fill="white"/>
</svg>
