<svg width="30" height="40" viewBox="0 0 30 40" fill="none" xmlns="http://www.w3.org/2000/svg">
<path fill-rule="evenodd" clip-rule="evenodd" d="M15.5218 3.50385L15.5446 7.00779L16.1977 7.06183C17.9721 7.20873 19.8688 8.14411 21.0403 9.45009C23.7363 12.4553 23.7371 16.9037 21.0422 19.7712C20.3068 20.5537 19.7487 20.9854 18.9245 21.4093C16.1979 22.8112 13.0147 22.4183 10.5954 20.3812L10.1746 20.0268L12.8591 17.3174L15.5435 14.6079H7.77177H0V22.449V30.2902L2.64867 27.6189L5.29735 24.9477L5.93611 25.5397C7.25431 26.7612 9.20135 27.8913 11.0081 28.4835C12.7849 29.0658 13.3626 29.1494 15.5881 29.1463C17.4256 29.1438 17.6121 29.1282 18.5857 28.8969C19.9054 28.5833 20.8994 28.2289 21.949 27.6975C26.3012 25.4939 29.2236 21.3584 29.8722 16.4848C30.028 15.3153 29.9381 12.7869 29.7017 11.6855C28.7551 7.27419 25.9258 3.57739 21.9577 1.56658C20.3649 0.759568 18.2493 0.187058 16.3926 0.0608007L15.499 0L15.5218 3.50385ZM19.9859 30.9632C17.9695 31.6238 14.4756 31.7385 12.117 31.2217L11.3891 31.0621L15.8178 35.5311L20.2465 40H25.1233H30L25.4287 35.3872C22.2836 32.2137 20.8029 30.7772 20.6829 30.7833C20.5869 30.7881 20.2733 30.869 19.9859 30.9632Z" fill="#4183F2"/>
</svg>
