<svg width="15" height="15" viewBox="0 0 15 15" fill="none" xmlns="http://www.w3.org/2000/svg">
<path d="M2.11612 11.1161C1.62796 11.6043 1.62796 12.3957 2.11612 12.8839C2.60427 13.372 3.39573 13.372 3.88388 12.8839L2.11612 11.1161ZM14.25 2C14.25 1.30964 13.6904 0.75 13 0.75H1.75C1.05964 0.75 0.500001 1.30964 0.500001 2C0.500001 2.69036 1.05964 3.25 1.75 3.25H11.75V13.25C11.75 13.9404 12.3096 14.5 13 14.5C13.6904 14.5 14.25 13.9404 14.25 13.25V2ZM3.88388 12.8839L13.8839 2.88388L12.1161 1.11612L2.11612 11.1161L3.88388 12.8839Z" fill="#001A44"/>
</svg>
