<svg width="25" height="25" viewBox="0 0 25 25" fill="none" xmlns="http://www.w3.org/2000/svg">
<path d="M7.08598 3.05908C5.29908 3.05908 3.83429 4.52388 3.83429 6.31078V17.8168C3.83429 19.6037 5.29908 21.0685 7.08598 21.0685H18.592C20.3789 21.0685 21.8437 19.6037 21.8437 17.8168V6.31078C21.8437 4.52388 20.3789 3.05908 18.592 3.05908H7.08598ZM7.08598 4.55986H18.592C19.5675 4.55986 20.3429 5.33524 20.3429 6.31078V7.06117H5.33507V6.31078C5.33507 5.33524 6.11044 4.55986 7.08598 4.55986ZM5.33507 8.56195H20.3429V17.8168C20.3429 18.7923 19.5675 19.5677 18.592 19.5677H7.08598C6.11044 19.5677 5.33507 18.7923 5.33507 17.8168V8.56195ZM8.58676 10.563C8.25507 10.563 7.93696 10.6948 7.70242 10.9293C7.46788 11.1638 7.33611 11.4819 7.33611 11.8136C7.33611 12.1453 7.46788 12.4634 7.70242 12.698C7.93696 12.9325 8.25507 13.0643 8.58676 13.0643C8.91846 13.0643 9.23657 12.9325 9.47111 12.698C9.70565 12.4634 9.83742 12.1453 9.83742 11.8136C9.83742 11.4819 9.70565 11.1638 9.47111 10.9293C9.23657 10.6948 8.91846 10.563 8.58676 10.563ZM12.839 10.563C12.5073 10.563 12.1892 10.6948 11.9546 10.9293C11.7201 11.1638 11.5883 11.4819 11.5883 11.8136C11.5883 12.1453 11.7201 12.4634 11.9546 12.698C12.1892 12.9325 12.5073 13.0643 12.839 13.0643C13.1707 13.0643 13.4888 12.9325 13.7233 12.698C13.9579 12.4634 14.0896 12.1453 14.0896 11.8136C14.0896 11.4819 13.9579 11.1638 13.7233 10.9293C13.4888 10.6948 13.1707 10.563 12.839 10.563ZM17.0912 10.563C16.7595 10.563 16.4414 10.6948 16.2068 10.9293C15.9723 11.1638 15.8405 11.4819 15.8405 11.8136C15.8405 12.1453 15.9723 12.4634 16.2068 12.698C16.4414 12.9325 16.7595 13.0643 17.0912 13.0643C17.4229 13.0643 17.741 12.9325 17.9755 12.698C18.2101 12.4634 18.3418 12.1453 18.3418 11.8136C18.3418 11.4819 18.2101 11.1638 17.9755 10.9293C17.741 10.6948 17.4229 10.563 17.0912 10.563ZM8.58676 15.0653C8.25507 15.0653 7.93696 15.1971 7.70242 15.4316C7.46788 15.6662 7.33611 15.9843 7.33611 16.316C7.33611 16.6477 7.46788 16.9658 7.70242 17.2003C7.93696 17.4349 8.25507 17.5666 8.58676 17.5666C8.91846 17.5666 9.23657 17.4349 9.47111 17.2003C9.70565 16.9658 9.83742 16.6477 9.83742 16.316C9.83742 15.9843 9.70565 15.6662 9.47111 15.4316C9.23657 15.1971 8.91846 15.0653 8.58676 15.0653ZM12.839 15.0653C12.5073 15.0653 12.1892 15.1971 11.9546 15.4316C11.7201 15.6662 11.5883 15.9843 11.5883 16.316C11.5883 16.6477 11.7201 16.9658 11.9546 17.2003C12.1892 17.4349 12.5073 17.5666 12.839 17.5666C13.1707 17.5666 13.4888 17.4349 13.7233 17.2003C13.9579 16.9658 14.0896 16.6477 14.0896 16.316C14.0896 15.9843 13.9579 15.6662 13.7233 15.4316C13.4888 15.1971 13.1707 15.0653 12.839 15.0653Z" fill="white"/>
</svg>
