<svg width="37" height="36" viewBox="0 0 37 36" fill="none" xmlns="http://www.w3.org/2000/svg">
<g clip-path="url(#clip0_0_1121)">
<rect x="0.5" width="36" height="36" rx="18" fill="#2E6BCD"/>
<path d="M27.4483 17.7722C27.422 17.7166 26.7868 16.3955 25.3745 15.0715C23.4928 13.3073 21.116 12.375 18.5 12.375C15.884 12.375 13.5072 13.3073 11.6255 15.0715C10.2132 16.3955 9.57499 17.7188 9.55174 17.7722C9.51763 17.8441 9.5 17.922 9.5 18.0007C9.5 18.0794 9.51763 18.1573 9.55174 18.2292C9.57799 18.2848 10.2132 19.6052 11.6255 20.9292C13.5072 22.6927 15.884 23.625 18.5 23.625C21.116 23.625 23.4928 22.6927 25.3745 20.9292C26.7868 19.6052 27.422 18.2848 27.4483 18.2292C27.4824 18.1573 27.5 18.0794 27.5 18.0007C27.5 17.922 27.4824 17.8441 27.4483 17.7722ZM18.5 20.8125C17.9067 20.8125 17.3266 20.6475 16.8333 20.3385C16.3399 20.0295 15.9554 19.5902 15.7284 19.0763C15.5013 18.5624 15.4419 17.9969 15.5576 17.4513C15.6734 16.9057 15.9591 16.4046 16.3787 16.0113C16.7982 15.6179 17.3328 15.3501 17.9147 15.2415C18.4967 15.133 19.0999 15.1887 19.6481 15.4016C20.1962 15.6145 20.6648 15.9749 20.9944 16.4375C21.3241 16.9 21.5 17.4437 21.5 18C21.5 18.7459 21.1839 19.4613 20.6213 19.9887C20.0587 20.5162 19.2956 20.8125 18.5 20.8125Z" fill="white"/>
</g>
<rect x="1.15625" y="0.65625" width="34.6875" height="34.6875" rx="17.3438" stroke="white" stroke-width="1.3125"/>
<defs>
<clipPath id="clip0_0_1121">
<rect x="0.5" width="36" height="36" rx="18" fill="white"/>
</clipPath>
</defs>
</svg>
