<svg width="176" height="56" viewBox="0 0 176 56" fill="none" xmlns="http://www.w3.org/2000/svg">
<path fill-rule="evenodd" clip-rule="evenodd" d="M46.4824 27.9365V55.8414H64.2276H81.9729V50.935V46.0287H69.1398H56.3068V38.5465V31.0643H69.1398H81.9729V26.158V21.2516H69.1398H56.3068V15.548V9.84437H69.1398H81.9729V4.93802V0.0316681H64.2276H46.4824V27.9365ZM103.151 0.30765C102.914 1.08776 86.0879 53.8535 85.7842 54.7695L85.428 55.8441L90.5967 55.8121L95.7655 55.7801L97.3861 50.6897C98.2774 47.89 99.3481 44.5368 99.7655 43.2382L100.524 40.877H108.43H116.335L116.752 42.1956C116.982 42.9209 118.051 46.2873 119.128 49.6767L121.086 55.8392L126.228 55.8403C131.064 55.8413 131.366 55.8286 131.312 55.6267C131.281 55.5087 127.285 42.9516 122.433 27.7219L113.612 0.0316681H108.423H103.235L103.151 0.30765ZM134.902 27.9313V55.8414H139.814H144.726V48.3711V40.9008L151.081 40.8415C156.831 40.7879 157.566 40.7581 158.8 40.5283C168.157 38.7857 175.024 31.1827 175.653 21.8684C176.105 15.1772 173.343 8.83489 168.12 4.57053C165.639 2.54445 162.524 1.08935 159.152 0.381368C157.809 0.0993755 157.767 0.0983949 146.353 0.0597574L134.902 0.0209961V27.9313ZM144.726 20.4634V31.0825L150.835 31.035C156.633 30.99 156.994 30.9741 157.901 30.7232C160.509 30.002 162.724 28.4175 164.175 26.2348C166.163 23.2431 166.461 19.233 164.935 16.0152C163.714 13.4408 161.709 11.5564 159.123 10.5515C157.446 9.89981 156.877 9.85332 150.528 9.84866L144.726 9.84437V20.4634ZM106.067 23.4738C104.77 27.5475 103.708 30.9217 103.709 30.9723C103.709 31.023 105.837 31.0643 108.437 31.0643C111.038 31.0643 113.165 31.0349 113.165 30.999C113.165 30.9501 109.126 18.2159 108.521 16.3596C108.448 16.1341 107.888 17.7579 106.067 23.4738Z" fill="white"/>
<path fill-rule="evenodd" clip-rule="evenodd" d="M21.9525 4.89151L21.9847 9.78314L22.9057 9.85857C25.408 10.0637 28.0825 11.3695 29.7346 13.1927C33.5364 17.3881 33.5375 23.5982 29.7373 27.6014C28.7002 28.6938 27.9132 29.2964 26.7509 29.8881C22.9059 31.8453 18.4171 31.2967 15.0054 28.4529L14.4121 27.9582L18.1976 24.1757L21.9832 20.3931H11.0236H0.0640869V31.3397V42.2862L3.79918 38.557L7.53428 34.828L8.43504 35.6543C10.2939 37.3596 13.0396 38.9373 15.5874 39.764C18.093 40.577 18.9077 40.6936 22.0461 40.6893C24.6372 40.6858 24.9003 40.6641 26.2731 40.3411C28.1342 39.9033 29.5359 39.4085 31.0159 38.6667C37.1533 35.5904 41.2744 29.8171 42.1892 23.0134C42.4087 21.3808 42.282 17.851 41.9487 16.3134C40.6138 10.155 36.624 4.99417 31.0282 2.18701C28.7821 1.06038 25.7988 0.261141 23.1805 0.08488L21.9204 0L21.9525 4.89151ZM28.2477 43.2258C25.4043 44.1479 20.4772 44.3081 17.1512 43.5867L16.1247 43.3639L22.3699 49.6027L28.6152 55.8415H35.4923H42.3693L35.923 49.4019C31.4879 44.9715 29.3998 42.9661 29.2306 42.9746C29.0953 42.9813 28.6529 43.0943 28.2477 43.2258Z" fill="#4183F2"/>
</svg>
