<svg width="176" height="56" viewBox="0 0 176 56" fill="none" xmlns="http://www.w3.org/2000/svg">
<rect width="176" height="56" fill="#F5F5F5"/>
<g id="Media Hub v2" clip-path="url(#clip0_0_1)">
<rect width="1920" height="9044" transform="translate(-52 -49)" fill="white"/>
<g id="Frame 36138">
<g id="Mask group">
<mask id="mask0_0_1" style="mask-type:alpha" maskUnits="userSpaceOnUse" x="-32" y="-29" width="1880" height="1040">
<path id="Subtract" fill-rule="evenodd" clip-rule="evenodd" d="M20 586C-8.71881 586 -32 562.719 -32 534V144C-32 115.281 -8.7188 92 20 92H143.455C161.234 92 177.78 82.9168 187.325 67.9175L233.675 -4.91751C243.22 -19.9168 259.766 -29 277.545 -29H1816C1833.67 -29 1848 -14.6731 1848 3V118C1848 146.719 1824.72 170 1796 170H1622C1593.28 170 1570 193.281 1570 222V609C1570 637.719 1593.28 661 1622 661H1812C1831.88 661 1848 677.118 1848 697C1848 716.882 1831.88 733 1812 733H1622C1593.28 733 1570 756.281 1570 785V959C1570 987.719 1546.72 1011 1518 1011H445C416.281 1011 393 987.719 393 959V638C393 609.281 369.719 586 341 586H20Z" fill="white"/>
</mask>
<g mask="url(#mask0_0_1)">
<g id="bg">
<rect id="Rectangle 17" x="1868" y="1031" width="1920" height="1080" transform="rotate(-180 1868 1031)" fill="#4183F2"/>
</g>
</g>
</g>
<g id="Group 34734">
<path id="Vector" fill-rule="evenodd" clip-rule="evenodd" d="M46.3943 27.9365V55.8414H64.1303H81.8663V50.935V46.0287H69.0399H56.2136V38.5465V31.0643H69.0399H81.8663V26.158V21.2516H69.0399H56.2136V15.548V9.84437H69.0399H81.8663V4.93802V0.0316681H64.1303H46.3943V27.9365ZM103.033 0.30765C102.796 1.08776 85.9792 53.8535 85.6757 54.7695L85.3196 55.8441L90.4856 55.8121L95.6518 55.7801L97.2715 50.6897C98.1623 47.89 99.2325 44.5368 99.6497 43.2382L100.408 40.877H108.309H116.21L116.628 42.1956C116.857 42.9209 117.926 46.2873 119.002 49.6767L120.959 55.8392L126.098 55.8403C130.932 55.8413 131.233 55.8286 131.18 55.6267C131.148 55.5087 127.155 42.9516 122.306 27.7219L113.489 0.0316681H108.303H103.117L103.033 0.30765ZM134.767 27.9313V55.8414H139.677H144.587V48.3711V40.9008L150.938 40.8415C156.686 40.7879 157.42 40.7581 158.653 40.5283C168.006 38.7857 174.869 31.1827 175.498 21.8684C175.949 15.1772 173.189 8.83489 167.969 4.57053C165.489 2.54445 162.375 1.08935 159.005 0.381368C157.663 0.0993755 157.621 0.0983949 146.213 0.0597574L134.767 0.0209961V27.9313ZM144.587 20.4634V31.0825L150.693 31.035C156.487 30.99 156.848 30.9741 157.755 30.7232C160.362 30.002 162.576 28.4175 164.025 26.2348C166.012 23.2431 166.31 19.233 164.785 16.0152C163.565 13.4408 161.561 11.5564 158.976 10.5515C157.3 9.89981 156.731 9.85332 150.386 9.84866L144.587 9.84437V20.4634ZM105.948 23.4738C104.651 27.5475 103.591 30.9217 103.591 30.9723C103.591 31.023 105.718 31.0643 108.317 31.0643C110.916 31.0643 113.042 31.0349 113.042 30.999C113.042 30.9501 109.005 18.2159 108.401 16.3596C108.328 16.1341 107.768 17.7579 105.948 23.4738Z" fill="#1B4384"/>
<path id="Vector_2" fill-rule="evenodd" clip-rule="evenodd" d="M21.877 4.89151L21.9092 9.78314L22.8297 9.85857C25.3307 10.0637 28.0038 11.3695 29.6551 13.1927C33.4549 17.3881 33.456 23.5982 29.6578 27.6014C28.6212 28.6938 27.8346 29.2964 26.673 29.8881C22.83 31.8453 18.3434 31.2967 14.9336 28.4529L14.3405 27.9582L18.1241 24.1757L21.9077 20.3931H10.9538H0V31.3397V42.2862L3.73315 38.557L7.4663 34.828L8.3666 35.6543C10.2245 37.3596 12.9688 38.9373 15.5152 39.764C18.0195 40.577 18.8338 40.6936 21.9705 40.6893C24.5604 40.6858 24.8233 40.6641 26.1954 40.3411C28.0555 39.9033 29.4565 39.4085 30.9357 38.6667C37.0699 35.5904 41.1889 29.8171 42.1031 23.0134C42.3226 21.3808 42.1959 17.851 41.8628 16.3134C40.5286 10.155 36.5409 4.99417 30.948 2.18701C28.7031 1.06038 25.7214 0.261141 23.1044 0.08488L21.845 0L21.877 4.89151ZM28.1689 43.2258C25.327 44.1479 20.4025 44.3081 17.0782 43.5867L16.0522 43.3639L22.2942 49.6027L28.5363 55.8415H35.4097H42.2832L35.8402 49.4019C31.4074 44.9715 29.3205 42.9661 29.1513 42.9746C29.0161 42.9813 28.574 43.0943 28.1689 43.2258Z" fill="#4183F2"/>
</g>
</g>
</g>
<defs>
<clipPath id="clip0_0_1">
<rect width="1920" height="9044" fill="white" transform="translate(-52 -49)"/>
</clipPath>
</defs>
</svg>
