<svg width="298" height="233" viewBox="0 0 298 233" fill="none" xmlns="http://www.w3.org/2000/svg">
<g opacity="0.5">
<path d="M6.46429 3.23214C6.46429 5.01721 5.01721 6.46429 3.23215 6.46429C1.44708 6.46429 0 5.01721 0 3.23214C0 1.44708 1.44708 0 3.23215 0C5.01721 0 6.46429 1.44708 6.46429 3.23214Z" fill="#4386F1"/>
<path d="M38.7857 3.23214C38.7857 5.01721 37.3387 6.46429 35.5536 6.46429C33.7685 6.46429 32.3214 5.01721 32.3214 3.23214C32.3214 1.44708 33.7685 0 35.5536 0C37.3387 0 38.7857 1.44708 38.7857 3.23214Z" fill="#4386F1"/>
<path d="M71.1072 3.23214C71.1072 5.01721 69.6601 6.46429 67.875 6.46429C66.09 6.46429 64.6429 5.01721 64.6429 3.23214C64.6429 1.44708 66.09 0 67.875 0C69.6601 0 71.1072 1.44708 71.1072 3.23214Z" fill="#4386F1"/>
<path d="M103.429 3.23214C103.429 5.01721 101.982 6.46429 100.196 6.46429C98.4114 6.46429 96.9643 5.01721 96.9643 3.23214C96.9643 1.44708 98.4114 0 100.196 0C101.982 0 103.429 1.44708 103.429 3.23214Z" fill="#4386F1"/>
<path d="M135.75 3.23214C135.75 5.01721 134.303 6.46429 132.518 6.46429C130.733 6.46429 129.286 5.01721 129.286 3.23214C129.286 1.44708 130.733 0 132.518 0C134.303 0 135.75 1.44708 135.75 3.23214Z" fill="#4386F1"/>
<path d="M168.071 3.23214C168.071 5.01721 166.624 6.46429 164.839 6.46429C163.054 6.46429 161.607 5.01721 161.607 3.23214C161.607 1.44708 163.054 0 164.839 0C166.624 0 168.071 1.44708 168.071 3.23214Z" fill="#4386F1"/>
<path d="M200.393 3.23214C200.393 5.01721 198.946 6.46429 197.161 6.46429C195.376 6.46429 193.929 5.01721 193.929 3.23214C193.929 1.44708 195.376 0 197.161 0C198.946 0 200.393 1.44708 200.393 3.23214Z" fill="#4386F1"/>
<path d="M232.714 3.23214C232.714 5.01721 231.267 6.46429 229.482 6.46429C227.697 6.46429 226.25 5.01721 226.25 3.23214C226.25 1.44708 227.697 0 229.482 0C231.267 0 232.714 1.44708 232.714 3.23214Z" fill="#4386F1"/>
<path d="M265.036 3.23214C265.036 5.01721 263.589 6.46429 261.804 6.46429C260.018 6.46429 258.571 5.01721 258.571 3.23214C258.571 1.44708 260.018 0 261.804 0C263.589 0 265.036 1.44708 265.036 3.23214Z" fill="#4386F1"/>
<path d="M297.357 3.23214C297.357 5.01721 295.91 6.46429 294.125 6.46429C292.34 6.46429 290.893 5.01721 290.893 3.23214C290.893 1.44708 292.34 0 294.125 0C295.91 0 297.357 1.44708 297.357 3.23214Z" fill="#4386F1"/>
<path d="M6.46429 35.5536C6.46429 37.3386 5.01721 38.7857 3.23215 38.7857C1.44708 38.7857 0 37.3386 0 35.5536C0 33.7685 1.44708 32.3214 3.23215 32.3214C5.01721 32.3214 6.46429 33.7685 6.46429 35.5536Z" fill="#4386F1"/>
<path d="M38.7857 35.5536C38.7857 37.3386 37.3387 38.7857 35.5536 38.7857C33.7685 38.7857 32.3214 37.3386 32.3214 35.5536C32.3214 33.7685 33.7685 32.3214 35.5536 32.3214C37.3387 32.3214 38.7857 33.7685 38.7857 35.5536Z" fill="#4386F1"/>
<path d="M71.1072 35.5536C71.1072 37.3386 69.6601 38.7857 67.875 38.7857C66.09 38.7857 64.6429 37.3386 64.6429 35.5536C64.6429 33.7685 66.09 32.3214 67.875 32.3214C69.6601 32.3214 71.1072 33.7685 71.1072 35.5536Z" fill="#4386F1"/>
<path d="M103.429 35.5536C103.429 37.3386 101.982 38.7857 100.196 38.7857C98.4114 38.7857 96.9643 37.3386 96.9643 35.5536C96.9643 33.7685 98.4114 32.3214 100.196 32.3214C101.982 32.3214 103.429 33.7685 103.429 35.5536Z" fill="#4386F1"/>
<path d="M135.75 35.5536C135.75 37.3386 134.303 38.7857 132.518 38.7857C130.733 38.7857 129.286 37.3386 129.286 35.5536C129.286 33.7685 130.733 32.3214 132.518 32.3214C134.303 32.3214 135.75 33.7685 135.75 35.5536Z" fill="#4386F1"/>
<path d="M168.071 35.5536C168.071 37.3386 166.624 38.7857 164.839 38.7857C163.054 38.7857 161.607 37.3386 161.607 35.5536C161.607 33.7685 163.054 32.3214 164.839 32.3214C166.624 32.3214 168.071 33.7685 168.071 35.5536Z" fill="#4386F1"/>
<path d="M200.393 35.5536C200.393 37.3386 198.946 38.7857 197.161 38.7857C195.376 38.7857 193.929 37.3386 193.929 35.5536C193.929 33.7685 195.376 32.3214 197.161 32.3214C198.946 32.3214 200.393 33.7685 200.393 35.5536Z" fill="#4386F1"/>
<path d="M232.714 35.5536C232.714 37.3386 231.267 38.7857 229.482 38.7857C227.697 38.7857 226.25 37.3386 226.25 35.5536C226.25 33.7685 227.697 32.3214 229.482 32.3214C231.267 32.3214 232.714 33.7685 232.714 35.5536Z" fill="#4386F1"/>
<path d="M265.036 35.5536C265.036 37.3386 263.589 38.7857 261.804 38.7857C260.018 38.7857 258.571 37.3386 258.571 35.5536C258.571 33.7685 260.018 32.3214 261.804 32.3214C263.589 32.3214 265.036 33.7685 265.036 35.5536Z" fill="#4386F1"/>
<path d="M297.357 35.5536C297.357 37.3386 295.91 38.7857 294.125 38.7857C292.34 38.7857 290.893 37.3386 290.893 35.5536C290.893 33.7685 292.34 32.3214 294.125 32.3214C295.91 32.3214 297.357 33.7685 297.357 35.5536Z" fill="#4386F1"/>
<path d="M6.46429 67.875C6.46429 69.6601 5.01721 71.1071 3.23215 71.1071C1.44708 71.1071 0 69.6601 0 67.875C0 66.0899 1.44708 64.6429 3.23215 64.6429C5.01721 64.6429 6.46429 66.0899 6.46429 67.875Z" fill="#4386F1"/>
<path d="M38.7857 67.875C38.7857 69.6601 37.3387 71.1071 35.5536 71.1071C33.7685 71.1071 32.3214 69.6601 32.3214 67.875C32.3214 66.0899 33.7685 64.6429 35.5536 64.6429C37.3387 64.6429 38.7857 66.0899 38.7857 67.875Z" fill="#4386F1"/>
<path d="M71.1072 67.875C71.1072 69.6601 69.6601 71.1071 67.875 71.1071C66.09 71.1071 64.6429 69.6601 64.6429 67.875C64.6429 66.0899 66.09 64.6429 67.875 64.6429C69.6601 64.6429 71.1072 66.0899 71.1072 67.875Z" fill="#4386F1"/>
<path d="M103.429 67.875C103.429 69.6601 101.982 71.1071 100.196 71.1071C98.4114 71.1071 96.9643 69.6601 96.9643 67.875C96.9643 66.0899 98.4114 64.6429 100.196 64.6429C101.982 64.6429 103.429 66.0899 103.429 67.875Z" fill="#4386F1"/>
<path d="M135.75 67.875C135.75 69.6601 134.303 71.1071 132.518 71.1071C130.733 71.1071 129.286 69.6601 129.286 67.875C129.286 66.0899 130.733 64.6429 132.518 64.6429C134.303 64.6429 135.75 66.0899 135.75 67.875Z" fill="#4386F1"/>
<path d="M168.071 67.875C168.071 69.6601 166.624 71.1071 164.839 71.1071C163.054 71.1071 161.607 69.6601 161.607 67.875C161.607 66.0899 163.054 64.6429 164.839 64.6429C166.624 64.6429 168.071 66.0899 168.071 67.875Z" fill="#4386F1"/>
<path d="M200.393 67.875C200.393 69.6601 198.946 71.1071 197.161 71.1071C195.376 71.1071 193.929 69.6601 193.929 67.875C193.929 66.0899 195.376 64.6429 197.161 64.6429C198.946 64.6429 200.393 66.0899 200.393 67.875Z" fill="#4386F1"/>
<path d="M232.714 67.875C232.714 69.6601 231.267 71.1071 229.482 71.1071C227.697 71.1071 226.25 69.6601 226.25 67.875C226.25 66.0899 227.697 64.6429 229.482 64.6429C231.267 64.6429 232.714 66.0899 232.714 67.875Z" fill="#4386F1"/>
<path d="M265.036 67.875C265.036 69.6601 263.589 71.1071 261.804 71.1071C260.018 71.1071 258.571 69.6601 258.571 67.875C258.571 66.0899 260.018 64.6429 261.804 64.6429C263.589 64.6429 265.036 66.0899 265.036 67.875Z" fill="#4386F1"/>
<path d="M297.357 67.875C297.357 69.6601 295.91 71.1071 294.125 71.1071C292.34 71.1071 290.893 69.6601 290.893 67.875C290.893 66.0899 292.34 64.6429 294.125 64.6429C295.91 64.6429 297.357 66.0899 297.357 67.875Z" fill="#4386F1"/>
<path d="M6.46429 100.196C6.46429 101.981 5.01721 103.429 3.23215 103.429C1.44708 103.429 0 101.981 0 100.196C0 98.4114 1.44708 96.9643 3.23215 96.9643C5.01721 96.9643 6.46429 98.4114 6.46429 100.196Z" fill="#4386F1"/>
<path d="M38.7857 100.196C38.7857 101.981 37.3387 103.429 35.5536 103.429C33.7685 103.429 32.3214 101.981 32.3214 100.196C32.3214 98.4114 33.7685 96.9643 35.5536 96.9643C37.3387 96.9643 38.7857 98.4114 38.7857 100.196Z" fill="#4386F1"/>
<path d="M71.1072 100.196C71.1072 101.981 69.6601 103.429 67.875 103.429C66.09 103.429 64.6429 101.981 64.6429 100.196C64.6429 98.4114 66.09 96.9643 67.875 96.9643C69.6601 96.9643 71.1072 98.4114 71.1072 100.196Z" fill="#4386F1"/>
<path d="M103.429 100.196C103.429 101.981 101.982 103.429 100.196 103.429C98.4114 103.429 96.9643 101.981 96.9643 100.196C96.9643 98.4114 98.4114 96.9643 100.196 96.9643C101.982 96.9643 103.429 98.4114 103.429 100.196Z" fill="#4386F1"/>
<path d="M135.75 100.196C135.75 101.981 134.303 103.429 132.518 103.429C130.733 103.429 129.286 101.981 129.286 100.196C129.286 98.4114 130.733 96.9643 132.518 96.9643C134.303 96.9643 135.75 98.4114 135.75 100.196Z" fill="#4386F1"/>
<path d="M168.071 100.196C168.071 101.981 166.624 103.429 164.839 103.429C163.054 103.429 161.607 101.981 161.607 100.196C161.607 98.4114 163.054 96.9643 164.839 96.9643C166.624 96.9643 168.071 98.4114 168.071 100.196Z" fill="#4386F1"/>
<path d="M200.393 100.196C200.393 101.981 198.946 103.429 197.161 103.429C195.376 103.429 193.929 101.981 193.929 100.196C193.929 98.4114 195.376 96.9643 197.161 96.9643C198.946 96.9643 200.393 98.4114 200.393 100.196Z" fill="#4386F1"/>
<path d="M232.714 100.196C232.714 101.981 231.267 103.429 229.482 103.429C227.697 103.429 226.25 101.981 226.25 100.196C226.25 98.4114 227.697 96.9643 229.482 96.9643C231.267 96.9643 232.714 98.4114 232.714 100.196Z" fill="#4386F1"/>
<path d="M265.036 100.196C265.036 101.981 263.589 103.429 261.804 103.429C260.018 103.429 258.571 101.981 258.571 100.196C258.571 98.4114 260.018 96.9643 261.804 96.9643C263.589 96.9643 265.036 98.4114 265.036 100.196Z" fill="#4386F1"/>
<path d="M297.357 100.196C297.357 101.981 295.91 103.429 294.125 103.429C292.34 103.429 290.893 101.981 290.893 100.196C290.893 98.4114 292.34 96.9643 294.125 96.9643C295.91 96.9643 297.357 98.4114 297.357 100.196Z" fill="#4386F1"/>
<path d="M6.46429 132.518C6.46429 134.303 5.01721 135.75 3.23215 135.75C1.44708 135.75 0 134.303 0 132.518C0 130.733 1.44708 129.286 3.23215 129.286C5.01721 129.286 6.46429 130.733 6.46429 132.518Z" fill="#4386F1"/>
<path d="M38.7857 132.518C38.7857 134.303 37.3387 135.75 35.5536 135.75C33.7685 135.75 32.3214 134.303 32.3214 132.518C32.3214 130.733 33.7685 129.286 35.5536 129.286C37.3387 129.286 38.7857 130.733 38.7857 132.518Z" fill="#4386F1"/>
<path d="M71.1072 132.518C71.1072 134.303 69.6601 135.75 67.875 135.75C66.09 135.75 64.6429 134.303 64.6429 132.518C64.6429 130.733 66.09 129.286 67.875 129.286C69.6601 129.286 71.1072 130.733 71.1072 132.518Z" fill="#4386F1"/>
<path d="M103.429 132.518C103.429 134.303 101.982 135.75 100.196 135.75C98.4114 135.75 96.9643 134.303 96.9643 132.518C96.9643 130.733 98.4114 129.286 100.196 129.286C101.982 129.286 103.429 130.733 103.429 132.518Z" fill="#4386F1"/>
<path d="M135.75 132.518C135.75 134.303 134.303 135.75 132.518 135.75C130.733 135.75 129.286 134.303 129.286 132.518C129.286 130.733 130.733 129.286 132.518 129.286C134.303 129.286 135.75 130.733 135.75 132.518Z" fill="#4386F1"/>
<path d="M168.071 132.518C168.071 134.303 166.624 135.75 164.839 135.75C163.054 135.75 161.607 134.303 161.607 132.518C161.607 130.733 163.054 129.286 164.839 129.286C166.624 129.286 168.071 130.733 168.071 132.518Z" fill="#4386F1"/>
<path d="M200.393 132.518C200.393 134.303 198.946 135.75 197.161 135.75C195.376 135.75 193.929 134.303 193.929 132.518C193.929 130.733 195.376 129.286 197.161 129.286C198.946 129.286 200.393 130.733 200.393 132.518Z" fill="#4386F1"/>
<path d="M232.714 132.518C232.714 134.303 231.267 135.75 229.482 135.75C227.697 135.75 226.25 134.303 226.25 132.518C226.25 130.733 227.697 129.286 229.482 129.286C231.267 129.286 232.714 130.733 232.714 132.518Z" fill="#4386F1"/>
<path d="M265.036 132.518C265.036 134.303 263.589 135.75 261.804 135.75C260.018 135.75 258.571 134.303 258.571 132.518C258.571 130.733 260.018 129.286 261.804 129.286C263.589 129.286 265.036 130.733 265.036 132.518Z" fill="#4386F1"/>
<path d="M297.357 132.518C297.357 134.303 295.91 135.75 294.125 135.75C292.34 135.75 290.893 134.303 290.893 132.518C290.893 130.733 292.34 129.286 294.125 129.286C295.91 129.286 297.357 130.733 297.357 132.518Z" fill="#4386F1"/>
<path d="M6.46429 164.839C6.46429 166.624 5.01721 168.071 3.23215 168.071C1.44708 168.071 0 166.624 0 164.839C0 163.054 1.44708 161.607 3.23215 161.607C5.01721 161.607 6.46429 163.054 6.46429 164.839Z" fill="#4386F1"/>
<path d="M38.7857 164.839C38.7857 166.624 37.3387 168.071 35.5536 168.071C33.7685 168.071 32.3214 166.624 32.3214 164.839C32.3214 163.054 33.7685 161.607 35.5536 161.607C37.3387 161.607 38.7857 163.054 38.7857 164.839Z" fill="#4386F1"/>
<path d="M71.1072 164.839C71.1072 166.624 69.6601 168.071 67.875 168.071C66.09 168.071 64.6429 166.624 64.6429 164.839C64.6429 163.054 66.09 161.607 67.875 161.607C69.6601 161.607 71.1072 163.054 71.1072 164.839Z" fill="#4386F1"/>
<path d="M103.429 164.839C103.429 166.624 101.982 168.071 100.196 168.071C98.4114 168.071 96.9643 166.624 96.9643 164.839C96.9643 163.054 98.4114 161.607 100.196 161.607C101.982 161.607 103.429 163.054 103.429 164.839Z" fill="#4386F1"/>
<path d="M135.75 164.839C135.75 166.624 134.303 168.071 132.518 168.071C130.733 168.071 129.286 166.624 129.286 164.839C129.286 163.054 130.733 161.607 132.518 161.607C134.303 161.607 135.75 163.054 135.75 164.839Z" fill="#4386F1"/>
<path d="M168.071 164.839C168.071 166.624 166.624 168.071 164.839 168.071C163.054 168.071 161.607 166.624 161.607 164.839C161.607 163.054 163.054 161.607 164.839 161.607C166.624 161.607 168.071 163.054 168.071 164.839Z" fill="#4386F1"/>
<path d="M200.393 164.839C200.393 166.624 198.946 168.071 197.161 168.071C195.376 168.071 193.929 166.624 193.929 164.839C193.929 163.054 195.376 161.607 197.161 161.607C198.946 161.607 200.393 163.054 200.393 164.839Z" fill="#4386F1"/>
<path d="M232.714 164.839C232.714 166.624 231.267 168.071 229.482 168.071C227.697 168.071 226.25 166.624 226.25 164.839C226.25 163.054 227.697 161.607 229.482 161.607C231.267 161.607 232.714 163.054 232.714 164.839Z" fill="#4386F1"/>
<path d="M265.036 164.839C265.036 166.624 263.589 168.071 261.804 168.071C260.018 168.071 258.571 166.624 258.571 164.839C258.571 163.054 260.018 161.607 261.804 161.607C263.589 161.607 265.036 163.054 265.036 164.839Z" fill="#4386F1"/>
<path d="M297.357 164.839C297.357 166.624 295.91 168.071 294.125 168.071C292.34 168.071 290.893 166.624 290.893 164.839C290.893 163.054 292.34 161.607 294.125 161.607C295.91 161.607 297.357 163.054 297.357 164.839Z" fill="#4386F1"/>
<path d="M6.46429 197.161C6.46429 198.946 5.01721 200.393 3.23215 200.393C1.44708 200.393 0 198.946 0 197.161C0 195.376 1.44708 193.929 3.23215 193.929C5.01721 193.929 6.46429 195.376 6.46429 197.161Z" fill="#4386F1"/>
<path d="M38.7857 197.161C38.7857 198.946 37.3387 200.393 35.5536 200.393C33.7685 200.393 32.3214 198.946 32.3214 197.161C32.3214 195.376 33.7685 193.929 35.5536 193.929C37.3387 193.929 38.7857 195.376 38.7857 197.161Z" fill="#4386F1"/>
<path d="M71.1072 197.161C71.1072 198.946 69.6601 200.393 67.875 200.393C66.09 200.393 64.6429 198.946 64.6429 197.161C64.6429 195.376 66.09 193.929 67.875 193.929C69.6601 193.929 71.1072 195.376 71.1072 197.161Z" fill="#4386F1"/>
<path d="M103.429 197.161C103.429 198.946 101.982 200.393 100.196 200.393C98.4114 200.393 96.9643 198.946 96.9643 197.161C96.9643 195.376 98.4114 193.929 100.196 193.929C101.982 193.929 103.429 195.376 103.429 197.161Z" fill="#4386F1"/>
<path d="M135.75 197.161C135.75 198.946 134.303 200.393 132.518 200.393C130.733 200.393 129.286 198.946 129.286 197.161C129.286 195.376 130.733 193.929 132.518 193.929C134.303 193.929 135.75 195.376 135.75 197.161Z" fill="#4386F1"/>
<path d="M168.071 197.161C168.071 198.946 166.624 200.393 164.839 200.393C163.054 200.393 161.607 198.946 161.607 197.161C161.607 195.376 163.054 193.929 164.839 193.929C166.624 193.929 168.071 195.376 168.071 197.161Z" fill="#4386F1"/>
<path d="M200.393 197.161C200.393 198.946 198.946 200.393 197.161 200.393C195.376 200.393 193.929 198.946 193.929 197.161C193.929 195.376 195.376 193.929 197.161 193.929C198.946 193.929 200.393 195.376 200.393 197.161Z" fill="#4386F1"/>
<path d="M232.714 197.161C232.714 198.946 231.267 200.393 229.482 200.393C227.697 200.393 226.25 198.946 226.25 197.161C226.25 195.376 227.697 193.929 229.482 193.929C231.267 193.929 232.714 195.376 232.714 197.161Z" fill="#4386F1"/>
<path d="M265.036 197.161C265.036 198.946 263.589 200.393 261.804 200.393C260.018 200.393 258.571 198.946 258.571 197.161C258.571 195.376 260.018 193.929 261.804 193.929C263.589 193.929 265.036 195.376 265.036 197.161Z" fill="#4386F1"/>
<path d="M297.357 197.161C297.357 198.946 295.91 200.393 294.125 200.393C292.34 200.393 290.893 198.946 290.893 197.161C290.893 195.376 292.34 193.929 294.125 193.929C295.91 193.929 297.357 195.376 297.357 197.161Z" fill="#4386F1"/>
<path d="M6.46429 229.482C6.46429 231.267 5.01721 232.714 3.23215 232.714C1.44708 232.714 0 231.267 0 229.482C0 227.697 1.44708 226.25 3.23215 226.25C5.01721 226.25 6.46429 227.697 6.46429 229.482Z" fill="#4386F1"/>
<path d="M38.7857 229.482C38.7857 231.267 37.3387 232.714 35.5536 232.714C33.7685 232.714 32.3214 231.267 32.3214 229.482C32.3214 227.697 33.7685 226.25 35.5536 226.25C37.3387 226.25 38.7857 227.697 38.7857 229.482Z" fill="#4386F1"/>
<path d="M71.1072 229.482C71.1072 231.267 69.6601 232.714 67.875 232.714C66.09 232.714 64.6429 231.267 64.6429 229.482C64.6429 227.697 66.09 226.25 67.875 226.25C69.6601 226.25 71.1072 227.697 71.1072 229.482Z" fill="#4386F1"/>
<path d="M103.429 229.482C103.429 231.267 101.982 232.714 100.196 232.714C98.4114 232.714 96.9643 231.267 96.9643 229.482C96.9643 227.697 98.4114 226.25 100.196 226.25C101.982 226.25 103.429 227.697 103.429 229.482Z" fill="#4386F1"/>
<path d="M135.75 229.482C135.75 231.267 134.303 232.714 132.518 232.714C130.733 232.714 129.286 231.267 129.286 229.482C129.286 227.697 130.733 226.25 132.518 226.25C134.303 226.25 135.75 227.697 135.75 229.482Z" fill="#4386F1"/>
<path d="M168.071 229.482C168.071 231.267 166.624 232.714 164.839 232.714C163.054 232.714 161.607 231.267 161.607 229.482C161.607 227.697 163.054 226.25 164.839 226.25C166.624 226.25 168.071 227.697 168.071 229.482Z" fill="#4386F1"/>
<path d="M200.393 229.482C200.393 231.267 198.946 232.714 197.161 232.714C195.376 232.714 193.929 231.267 193.929 229.482C193.929 227.697 195.376 226.25 197.161 226.25C198.946 226.25 200.393 227.697 200.393 229.482Z" fill="#4386F1"/>
<path d="M232.714 229.482C232.714 231.267 231.267 232.714 229.482 232.714C227.697 232.714 226.25 231.267 226.25 229.482C226.25 227.697 227.697 226.25 229.482 226.25C231.267 226.25 232.714 227.697 232.714 229.482Z" fill="#4386F1"/>
<path d="M265.036 229.482C265.036 231.267 263.589 232.714 261.804 232.714C260.018 232.714 258.571 231.267 258.571 229.482C258.571 227.697 260.018 226.25 261.804 226.25C263.589 226.25 265.036 227.697 265.036 229.482Z" fill="#4386F1"/>
<path d="M297.357 229.482C297.357 231.267 295.91 232.714 294.125 232.714C292.34 232.714 290.893 231.267 290.893 229.482C290.893 227.697 292.34 226.25 294.125 226.25C295.91 226.25 297.357 227.697 297.357 229.482Z" fill="#4386F1"/>
</g>
</svg>
