<svg width="36" height="37" viewBox="0 0 36 37" fill="none" xmlns="http://www.w3.org/2000/svg">
<circle cx="18" cy="18.5" r="18" fill="white"/>
<path d="M10 16.9869C9.4405 16.9869 8.98693 17.4405 8.98693 18C8.98693 18.5595 9.4405 19.0131 10 19.0131L10 16.9869ZM26.7164 18.7163C27.112 18.3207 27.112 17.6793 26.7164 17.2836L20.2692 10.8365C19.8736 10.4409 19.2321 10.4409 18.8365 10.8365C18.4409 11.2321 18.4409 11.8736 18.8365 12.2692L24.5673 18L18.8365 23.7308C18.4409 24.1264 18.4409 24.7679 18.8365 25.1635C19.2321 25.5591 19.8736 25.5591 20.2692 25.1635L26.7164 18.7163ZM10 19.0131L26 19.0131L26 16.9869L10 16.9869L10 19.0131Z" fill="#061D3F"/>
</svg>
