<svg width="36" height="37" viewBox="0 0 36 37" fill="none" xmlns="http://www.w3.org/2000/svg">
<circle cx="18" cy="18.5" r="18" transform="rotate(180 18 18.5)" fill="white"/>
<path d="M26 20.0131C26.5595 20.0131 27.0131 19.5595 27.0131 19C27.0131 18.4405 26.5595 17.9869 26 17.9869L26 20.0131ZM9.28365 18.2837C8.88802 18.6793 8.88802 19.3207 9.28365 19.7164L15.7308 26.1635C16.1264 26.5591 16.7679 26.5591 17.1635 26.1635C17.5591 25.7679 17.5591 25.1264 17.1635 24.7308L11.4327 19L17.1635 13.2692C17.5591 12.8736 17.5591 12.2321 17.1635 11.8365C16.7679 11.4409 16.1264 11.4409 15.7308 11.8365L9.28365 18.2837ZM26 17.9869L10 17.9869L10 20.0131L26 20.0131L26 17.9869Z" fill="#061D3F"/>
</svg>
