<svg width="72" height="72" viewBox="0 0 72 72" fill="none" xmlns="http://www.w3.org/2000/svg">
<circle opacity="0.05" cx="36" cy="36" r="36" fill="#0A1339"/>
<path d="M22.9393 34.9393C22.3536 35.5251 22.3536 36.4749 22.9393 37.0607L32.4853 46.6066C33.0711 47.1924 34.0208 47.1924 34.6066 46.6066C35.1924 46.0208 35.1924 45.0711 34.6066 44.4853L26.1213 36L34.6066 27.5147C35.1924 26.9289 35.1924 25.9792 34.6066 25.3934C34.0208 24.8076 33.0711 24.8076 32.4853 25.3934L22.9393 34.9393ZM48 37.5C48.8284 37.5 49.5 36.8284 49.5 36C49.5 35.1716 48.8284 34.5 48 34.5L48 37.5ZM24 37.5L48 37.5L48 34.5L24 34.5L24 37.5Z" fill="#0A1339"/>
</svg>
