<svg width="72" height="72" viewBox="0 0 72 72" fill="none" xmlns="http://www.w3.org/2000/svg">
<circle opacity="0.05" cx="36" cy="36" r="36" fill="#0A1339"/>
<path d="M24 34.5C23.1716 34.5 22.5 35.1716 22.5 36C22.5 36.8284 23.1716 37.5 24 37.5L24 34.5ZM49.0607 37.0607C49.6464 36.4749 49.6464 35.5251 49.0607 34.9393L39.5147 25.3934C38.9289 24.8076 37.9792 24.8076 37.3934 25.3934C36.8076 25.9792 36.8076 26.9289 37.3934 27.5147L45.8787 36L37.3934 44.4853C36.8076 45.0711 36.8076 46.0208 37.3934 46.6066C37.9792 47.1924 38.9289 47.1924 39.5147 46.6066L49.0607 37.0607ZM24 37.5L48 37.5L48 34.5L24 34.5L24 37.5Z" fill="#0A1339"/>
</svg>
