<svg width="23" height="24" viewBox="0 0 23 24" fill="none" xmlns="http://www.w3.org/2000/svg">
<path d="M0.585786 20.0858C-0.195262 20.8668 -0.195262 22.1332 0.585786 22.9142C1.36684 23.6953 2.63316 23.6953 3.41421 22.9142L0.585786 20.0858ZM23 2.5C23 1.39543 22.1046 0.500001 21 0.500002L3 0.500001C1.89543 0.500001 0.999999 1.39543 0.999999 2.5C0.999999 3.60457 1.89543 4.5 3 4.5L19 4.5L19 20.5C19 21.6046 19.8954 22.5 21 22.5C22.1046 22.5 23 21.6046 23 20.5L23 2.5ZM3.41421 22.9142L22.4142 3.91421L19.5858 1.08579L0.585786 20.0858L3.41421 22.9142Z" fill="white"/>
</svg>
