<svg width="25" height="25" viewBox="0 0 25 25" fill="none" xmlns="http://www.w3.org/2000/svg">
<path fill-rule="evenodd" clip-rule="evenodd" d="M6.55281 2.45947L7.99356 6.78172V9.66322H8.95406V6.78172L10.3948 2.45947H9.43431L8.47381 5.34097L7.51331 2.45947H6.55281ZM11.8356 4.38047C11.3234 4.38047 11.072 4.46114 10.7588 4.71815C10.4586 4.97141 10.3761 5.16651 10.3948 5.82122V8.22247C10.3948 8.70085 10.4736 9.01601 10.7625 9.29553C11.0627 9.57505 11.3459 9.66322 11.8356 9.66322C12.3477 9.66322 12.6272 9.57505 12.9161 9.29553C13.2163 9.02727 13.2763 8.70085 13.2763 8.22247V5.82122C13.2763 5.39725 13.2013 4.99579 12.9105 4.72753C12.6103 4.45176 12.3008 4.38047 11.8356 4.38047ZM14.2368 4.38047V8.70272C14.2368 9.16984 14.7077 9.66322 15.1973 9.66322C15.6869 9.66322 15.9458 9.41747 16.1578 9.18297V9.66322H17.1183V4.38047H16.1578V8.22247C16.1522 8.55077 15.7657 8.70272 15.6776 8.70272C15.5781 8.70272 15.1973 8.68209 15.1973 8.22247V4.38047H14.2368ZM11.8356 5.34097C11.98 5.34097 12.3158 5.3391 12.3158 5.82122V8.22247C12.3158 8.68772 11.9913 8.70272 11.8356 8.70272C11.6911 8.70272 11.3553 8.6971 11.3553 8.22247V5.82122C11.3553 5.42914 11.5635 5.34097 11.8356 5.34097ZM5.11206 10.6237C3.38616 10.6237 2.23056 11.7681 2.23056 13.5052V18.0676C2.23056 19.8048 3.38616 21.1892 5.11206 21.1892H19.5196C21.2455 21.1892 22.4011 20.0449 22.4011 18.3077V13.5052C22.4011 11.7681 21.2455 10.6237 19.5196 10.6237H5.11206ZM6.07256 12.5447H8.95406V13.5052H7.99356V19.2682H7.03306V13.5052H6.07256V12.5447ZM12.7961 12.5447H13.7566V14.4657C13.8672 14.2931 14.0323 14.1562 14.1899 14.0793C14.3437 14.0005 14.4994 13.9555 14.657 13.9555C14.9684 13.9555 15.2123 14.068 15.3793 14.2781C15.5462 14.4901 15.6776 14.7715 15.6776 15.1861V18.0676C15.6776 18.424 15.5575 18.6454 15.3999 18.8349C15.2461 19.0243 15.0153 19.2645 14.7171 19.2682C14.2124 19.2739 13.9423 19.0037 13.7566 18.788V19.2682H12.7961V12.5447ZM8.95406 13.9855H9.91456V17.8275C9.91456 17.9382 10.044 18.3115 10.3948 18.3077C10.785 18.304 10.7888 17.94 10.8751 17.8275V13.9855H11.8356V19.2682H10.8751V18.788C10.6968 18.9981 10.6049 19.0637 10.4042 19.1632C10.2053 19.2757 10.0027 19.2682 9.81514 19.2682C9.58251 19.2682 9.318 19.0581 9.19419 18.9005C9.0835 18.7561 8.95406 18.6079 8.95406 18.3077V13.9855ZM17.6942 13.9855C18.1501 13.9855 18.4709 14.083 18.7129 14.3382C18.9605 14.5933 19.0393 14.8916 19.0393 15.3718V16.867H17.1183V17.6099C17.1183 17.8781 17.154 18.0488 17.2234 18.1501C17.289 18.2608 17.4222 18.3096 17.5986 18.3077C17.7937 18.3059 17.9175 18.2665 17.9831 18.1783C18.0507 18.0995 18.0788 17.8763 18.0788 17.5874V17.3472H19.0393V17.6324C19.0393 18.1558 18.998 18.546 18.7392 18.8011C18.4953 19.0694 18.1145 19.1932 17.6154 19.1932C17.1596 19.1932 16.8032 19.0581 16.548 18.7805C16.2929 18.5028 16.1597 18.122 16.1597 17.6324V15.3718C16.1597 14.9366 16.3116 14.6139 16.5912 14.3269C16.8163 14.0962 17.2384 13.9855 17.6942 13.9855ZM14.2368 14.7058C13.9723 14.7058 13.7603 14.9441 13.7566 15.1861V18.0676C13.7603 18.2064 13.9723 18.3077 14.2368 18.3077C14.5013 18.3077 14.7171 18.1032 14.7171 17.8387V15.4262C14.7171 14.946 14.5013 14.7058 14.2368 14.7058ZM17.5986 14.946C17.3341 14.946 17.1221 15.1692 17.1183 15.4262V15.9065H18.0788V15.4262C18.0788 15.1317 17.8631 14.946 17.5986 14.946Z" fill="white"/>
</svg>
